<mxfile host="65bd71144e">
    <diagram id="WYftF9OZC229M_9Ndog8" name="Página-1">
        <mxGraphModel dx="1654" dy="1716" grid="1" gridSize="10" guides="1" tooltips="1" connect="1" arrows="1" fold="1" page="1" pageScale="1" pageWidth="827" pageHeight="1169" math="0" shadow="0">
            <root>
                <mxCell id="0"/>
                <mxCell id="1" parent="0"/>
                <mxCell id="3" value="Cliente" style="swimlane;fontStyle=0;childLayout=stackLayout;horizontal=1;startSize=26;fillColor=none;horizontalStack=0;resizeParent=1;resizeParentMax=0;resizeLast=0;collapsible=1;marginBottom=0;" parent="1" vertex="1">
                    <mxGeometry x="-800" y="-470" width="170" height="338" as="geometry"/>
                </mxCell>
                <mxCell id="4" value="_id: ObjectId" style="text;strokeColor=none;fillColor=none;align=left;verticalAlign=top;spacingLeft=4;spacingRight=4;overflow=hidden;rotatable=0;points=[[0,0.5],[1,0.5]];portConstraint=eastwest;" parent="3" vertex="1">
                    <mxGeometry y="26" width="170" height="26" as="geometry"/>
                </mxCell>
                <mxCell id="5" value="nome: String" style="text;strokeColor=none;fillColor=none;align=left;verticalAlign=top;spacingLeft=4;spacingRight=4;overflow=hidden;rotatable=0;points=[[0,0.5],[1,0.5]];portConstraint=eastwest;" parent="3" vertex="1">
                    <mxGeometry y="52" width="170" height="26" as="geometry"/>
                </mxCell>
                <mxCell id="30" value="cpf: String (unique)" style="text;strokeColor=none;fillColor=none;align=left;verticalAlign=top;spacingLeft=4;spacingRight=4;overflow=hidden;rotatable=0;points=[[0,0.5],[1,0.5]];portConstraint=eastwest;" parent="3" vertex="1">
                    <mxGeometry y="78" width="170" height="26" as="geometry"/>
                </mxCell>
                <mxCell id="19" value="data_nascimento: Date Time?" style="text;strokeColor=none;fillColor=none;align=left;verticalAlign=top;spacingLeft=4;spacingRight=4;overflow=hidden;rotatable=0;points=[[0,0.5],[1,0.5]];portConstraint=eastwest;" parent="3" vertex="1">
                    <mxGeometry y="104" width="170" height="26" as="geometry"/>
                </mxCell>
                <mxCell id="20" value="logradouro: String" style="text;strokeColor=none;fillColor=none;align=left;verticalAlign=top;spacingLeft=4;spacingRight=4;overflow=hidden;rotatable=0;points=[[0,0.5],[1,0.5]];portConstraint=eastwest;" parent="3" vertex="1">
                    <mxGeometry y="130" width="170" height="26" as="geometry"/>
                </mxCell>
                <mxCell id="22" value="num_casa: String" style="text;strokeColor=none;fillColor=none;align=left;verticalAlign=top;spacingLeft=4;spacingRight=4;overflow=hidden;rotatable=0;points=[[0,0.5],[1,0.5]];portConstraint=eastwest;" parent="3" vertex="1">
                    <mxGeometry y="156" width="170" height="26" as="geometry"/>
                </mxCell>
                <mxCell id="23" value="bairro: String" style="text;strokeColor=none;fillColor=none;align=left;verticalAlign=top;spacingLeft=4;spacingRight=4;overflow=hidden;rotatable=0;points=[[0,0.5],[1,0.5]];portConstraint=eastwest;" parent="3" vertex="1">
                    <mxGeometry y="182" width="170" height="26" as="geometry"/>
                </mxCell>
                <mxCell id="25" value="complemento: String" style="text;strokeColor=none;fillColor=none;align=left;verticalAlign=top;spacingLeft=4;spacingRight=4;overflow=hidden;rotatable=0;points=[[0,0.5],[1,0.5]];portConstraint=eastwest;" parent="3" vertex="1">
                    <mxGeometry y="208" width="170" height="26" as="geometry"/>
                </mxCell>
                <mxCell id="26" value="municipio: String" style="text;strokeColor=none;fillColor=none;align=left;verticalAlign=top;spacingLeft=4;spacingRight=4;overflow=hidden;rotatable=0;points=[[0,0.5],[1,0.5]];portConstraint=eastwest;" parent="3" vertex="1">
                    <mxGeometry y="234" width="170" height="26" as="geometry"/>
                </mxCell>
                <mxCell id="27" value="uf: String" style="text;strokeColor=none;fillColor=none;align=left;verticalAlign=top;spacingLeft=4;spacingRight=4;overflow=hidden;rotatable=0;points=[[0,0.5],[1,0.5]];portConstraint=eastwest;" parent="3" vertex="1">
                    <mxGeometry y="260" width="170" height="26" as="geometry"/>
                </mxCell>
                <mxCell id="28" value="telefone: String" style="text;strokeColor=none;fillColor=none;align=left;verticalAlign=top;spacingLeft=4;spacingRight=4;overflow=hidden;rotatable=0;points=[[0,0.5],[1,0.5]];portConstraint=eastwest;" parent="3" vertex="1">
                    <mxGeometry y="286" width="170" height="26" as="geometry"/>
                </mxCell>
                <mxCell id="6" value="email: String" style="text;strokeColor=none;fillColor=none;align=left;verticalAlign=top;spacingLeft=4;spacingRight=4;overflow=hidden;rotatable=0;points=[[0,0.5],[1,0.5]];portConstraint=eastwest;" parent="3" vertex="1">
                    <mxGeometry y="312" width="170" height="26" as="geometry"/>
                </mxCell>
                <mxCell id="7" value="Venda" style="swimlane;fontStyle=0;childLayout=stackLayout;horizontal=1;startSize=26;fillColor=none;horizontalStack=0;resizeParent=1;resizeParentMax=0;resizeLast=0;collapsible=1;marginBottom=0;" parent="1" vertex="1">
                    <mxGeometry x="-550" y="-470" width="170" height="130" as="geometry"/>
                </mxCell>
                <mxCell id="8" value="_id: ObjectID" style="text;strokeColor=none;fillColor=none;align=left;verticalAlign=top;spacingLeft=4;spacingRight=4;overflow=hidden;rotatable=0;points=[[0,0.5],[1,0.5]];portConstraint=eastwest;" parent="7" vertex="1">
                    <mxGeometry y="26" width="170" height="26" as="geometry"/>
                </mxCell>
                <mxCell id="9" value="num_venda: Int" style="text;strokeColor=none;fillColor=none;align=left;verticalAlign=top;spacingLeft=4;spacingRight=4;overflow=hidden;rotatable=0;points=[[0,0.5],[1,0.5]];portConstraint=eastwest;" parent="7" vertex="1">
                    <mxGeometry y="52" width="170" height="26" as="geometry"/>
                </mxCell>
                <mxCell id="10" value="data_venda:  Date Time" style="text;strokeColor=none;fillColor=none;align=left;verticalAlign=top;spacingLeft=4;spacingRight=4;overflow=hidden;rotatable=0;points=[[0,0.5],[1,0.5]];portConstraint=eastwest;" parent="7" vertex="1">
                    <mxGeometry y="78" width="170" height="26" as="geometry"/>
                </mxCell>
                <mxCell id="66" value="cliente: Cliente" style="text;strokeColor=none;fillColor=none;align=left;verticalAlign=top;spacingLeft=4;spacingRight=4;overflow=hidden;rotatable=0;points=[[0,0.5],[1,0.5]];portConstraint=eastwest;" parent="7" vertex="1">
                    <mxGeometry y="104" width="170" height="26" as="geometry"/>
                </mxCell>
                <mxCell id="11" value="Produto" style="swimlane;fontStyle=0;childLayout=stackLayout;horizontal=1;startSize=26;fillColor=none;horizontalStack=0;resizeParent=1;resizeParentMax=0;resizeLast=0;collapsible=1;marginBottom=0;" parent="1" vertex="1">
                    <mxGeometry x="-50" y="-470" width="170" height="182" as="geometry"/>
                </mxCell>
                <mxCell id="12" value="_id: ObjectId" style="text;strokeColor=none;fillColor=none;align=left;verticalAlign=top;spacingLeft=4;spacingRight=4;overflow=hidden;rotatable=0;points=[[0,0.5],[1,0.5]];portConstraint=eastwest;" parent="11" vertex="1">
                    <mxGeometry y="26" width="170" height="26" as="geometry"/>
                </mxCell>
                <mxCell id="13" value="descricao: String" style="text;strokeColor=none;fillColor=none;align=left;verticalAlign=top;spacingLeft=4;spacingRight=4;overflow=hidden;rotatable=0;points=[[0,0.5],[1,0.5]];portConstraint=eastwest;" parent="11" vertex="1">
                    <mxGeometry y="52" width="170" height="26" as="geometry"/>
                </mxCell>
                <mxCell id="14" value="unidade_medida; String" style="text;strokeColor=none;fillColor=none;align=left;verticalAlign=top;spacingLeft=4;spacingRight=4;overflow=hidden;rotatable=0;points=[[0,0.5],[1,0.5]];portConstraint=eastwest;" parent="11" vertex="1">
                    <mxGeometry y="78" width="170" height="26" as="geometry"/>
                </mxCell>
                <mxCell id="37" value="quantidade: Decimal" style="text;strokeColor=none;fillColor=none;align=left;verticalAlign=top;spacingLeft=4;spacingRight=4;overflow=hidden;rotatable=0;points=[[0,0.5],[1,0.5]];portConstraint=eastwest;" parent="11" vertex="1">
                    <mxGeometry y="104" width="170" height="26" as="geometry"/>
                </mxCell>
                <mxCell id="38" value="valor_unitario: Decimal" style="text;strokeColor=none;fillColor=none;align=left;verticalAlign=top;spacingLeft=4;spacingRight=4;overflow=hidden;rotatable=0;points=[[0,0.5],[1,0.5]];portConstraint=eastwest;" parent="11" vertex="1">
                    <mxGeometry y="130" width="170" height="26" as="geometry"/>
                </mxCell>
                <mxCell id="79" value="fornecedor: [Fornecedor]" style="text;strokeColor=none;fillColor=none;align=left;verticalAlign=top;spacingLeft=4;spacingRight=4;overflow=hidden;rotatable=0;points=[[0,0.5],[1,0.5]];portConstraint=eastwest;" parent="11" vertex="1">
                    <mxGeometry y="156" width="170" height="26" as="geometry"/>
                </mxCell>
                <mxCell id="39" value="Fornecedor" style="swimlane;fontStyle=0;childLayout=stackLayout;horizontal=1;startSize=26;fillColor=none;horizontalStack=0;resizeParent=1;resizeParentMax=0;resizeLast=0;collapsible=1;marginBottom=0;" parent="1" vertex="1">
                    <mxGeometry x="190" y="-470" width="170" height="338" as="geometry"/>
                </mxCell>
                <mxCell id="40" value="_id: ObjectId" style="text;strokeColor=none;fillColor=none;align=left;verticalAlign=top;spacingLeft=4;spacingRight=4;overflow=hidden;rotatable=0;points=[[0,0.5],[1,0.5]];portConstraint=eastwest;" parent="39" vertex="1">
                    <mxGeometry y="26" width="170" height="26" as="geometry"/>
                </mxCell>
                <mxCell id="52" value="razao_social: String" style="text;strokeColor=none;fillColor=none;align=left;verticalAlign=top;spacingLeft=4;spacingRight=4;overflow=hidden;rotatable=0;points=[[0,0.5],[1,0.5]];portConstraint=eastwest;" parent="39" vertex="1">
                    <mxGeometry y="52" width="170" height="26" as="geometry"/>
                </mxCell>
                <mxCell id="41" value="nome_fantasia: String" style="text;strokeColor=none;fillColor=none;align=left;verticalAlign=top;spacingLeft=4;spacingRight=4;overflow=hidden;rotatable=0;points=[[0,0.5],[1,0.5]];portConstraint=eastwest;" parent="39" vertex="1">
                    <mxGeometry y="78" width="170" height="26" as="geometry"/>
                </mxCell>
                <mxCell id="42" value="cnpj: String (unique)" style="text;strokeColor=none;fillColor=none;align=left;verticalAlign=top;spacingLeft=4;spacingRight=4;overflow=hidden;rotatable=0;points=[[0,0.5],[1,0.5]];portConstraint=eastwest;" parent="39" vertex="1">
                    <mxGeometry y="104" width="170" height="26" as="geometry"/>
                </mxCell>
                <mxCell id="44" value="logradouro: String" style="text;strokeColor=none;fillColor=none;align=left;verticalAlign=top;spacingLeft=4;spacingRight=4;overflow=hidden;rotatable=0;points=[[0,0.5],[1,0.5]];portConstraint=eastwest;" parent="39" vertex="1">
                    <mxGeometry y="130" width="170" height="26" as="geometry"/>
                </mxCell>
                <mxCell id="45" value="num_casa: String" style="text;strokeColor=none;fillColor=none;align=left;verticalAlign=top;spacingLeft=4;spacingRight=4;overflow=hidden;rotatable=0;points=[[0,0.5],[1,0.5]];portConstraint=eastwest;" parent="39" vertex="1">
                    <mxGeometry y="156" width="170" height="26" as="geometry"/>
                </mxCell>
                <mxCell id="46" value="bairro: String" style="text;strokeColor=none;fillColor=none;align=left;verticalAlign=top;spacingLeft=4;spacingRight=4;overflow=hidden;rotatable=0;points=[[0,0.5],[1,0.5]];portConstraint=eastwest;" parent="39" vertex="1">
                    <mxGeometry y="182" width="170" height="26" as="geometry"/>
                </mxCell>
                <mxCell id="47" value="complemento: String?" style="text;strokeColor=none;fillColor=none;align=left;verticalAlign=top;spacingLeft=4;spacingRight=4;overflow=hidden;rotatable=0;points=[[0,0.5],[1,0.5]];portConstraint=eastwest;" parent="39" vertex="1">
                    <mxGeometry y="208" width="170" height="26" as="geometry"/>
                </mxCell>
                <mxCell id="48" value="municipio: String" style="text;strokeColor=none;fillColor=none;align=left;verticalAlign=top;spacingLeft=4;spacingRight=4;overflow=hidden;rotatable=0;points=[[0,0.5],[1,0.5]];portConstraint=eastwest;" parent="39" vertex="1">
                    <mxGeometry y="234" width="170" height="26" as="geometry"/>
                </mxCell>
                <mxCell id="49" value="uf: String" style="text;strokeColor=none;fillColor=none;align=left;verticalAlign=top;spacingLeft=4;spacingRight=4;overflow=hidden;rotatable=0;points=[[0,0.5],[1,0.5]];portConstraint=eastwest;" parent="39" vertex="1">
                    <mxGeometry y="260" width="170" height="26" as="geometry"/>
                </mxCell>
                <mxCell id="50" value="telefone: String" style="text;strokeColor=none;fillColor=none;align=left;verticalAlign=top;spacingLeft=4;spacingRight=4;overflow=hidden;rotatable=0;points=[[0,0.5],[1,0.5]];portConstraint=eastwest;" parent="39" vertex="1">
                    <mxGeometry y="286" width="170" height="26" as="geometry"/>
                </mxCell>
                <mxCell id="51" value="email: String" style="text;strokeColor=none;fillColor=none;align=left;verticalAlign=top;spacingLeft=4;spacingRight=4;overflow=hidden;rotatable=0;points=[[0,0.5],[1,0.5]];portConstraint=eastwest;" parent="39" vertex="1">
                    <mxGeometry y="312" width="170" height="26" as="geometry"/>
                </mxCell>
                <mxCell id="53" value="ItemVenda" style="swimlane;fontStyle=0;childLayout=stackLayout;horizontal=1;startSize=26;fillColor=none;horizontalStack=0;resizeParent=1;resizeParentMax=0;resizeLast=0;collapsible=1;marginBottom=0;" parent="1" vertex="1">
                    <mxGeometry x="-300" y="-470" width="170" height="104" as="geometry"/>
                </mxCell>
                <mxCell id="55" value="num_item: Int" style="text;strokeColor=none;fillColor=none;align=left;verticalAlign=top;spacingLeft=4;spacingRight=4;overflow=hidden;rotatable=0;points=[[0,0.5],[1,0.5]];portConstraint=eastwest;" parent="53" vertex="1">
                    <mxGeometry y="26" width="170" height="26" as="geometry"/>
                </mxCell>
                <mxCell id="56" value="produto: Produto" style="text;strokeColor=none;fillColor=none;align=left;verticalAlign=top;spacingLeft=4;spacingRight=4;overflow=hidden;rotatable=0;points=[[0,0.5],[1,0.5]];portConstraint=eastwest;" parent="53" vertex="1">
                    <mxGeometry y="52" width="170" height="26" as="geometry"/>
                </mxCell>
                <mxCell id="57" value="quantidade: Double" style="text;strokeColor=none;fillColor=none;align=left;verticalAlign=top;spacingLeft=4;spacingRight=4;overflow=hidden;rotatable=0;points=[[0,0.5],[1,0.5]];portConstraint=eastwest;" parent="53" vertex="1">
                    <mxGeometry y="78" width="170" height="26" as="geometry"/>
                </mxCell>
                <mxCell id="61" value="" style="endArrow=diamondThin;endFill=0;endSize=24;html=1;entryX=0.006;entryY=0.109;entryDx=0;entryDy=0;entryPerimeter=0;" parent="1" target="7" edge="1">
                    <mxGeometry width="160" relative="1" as="geometry">
                        <mxPoint x="-630" y="-456" as="sourcePoint"/>
                        <mxPoint x="-470" y="-490" as="targetPoint"/>
                    </mxGeometry>
                </mxCell>
                <mxCell id="62" value="1" style="edgeLabel;html=1;align=center;verticalAlign=middle;resizable=0;points=[];" parent="61" vertex="1" connectable="0">
                    <mxGeometry x="-0.9343" relative="1" as="geometry">
                        <mxPoint x="3" y="-9" as="offset"/>
                    </mxGeometry>
                </mxCell>
                <mxCell id="63" value="0.*" style="edgeLabel;html=1;align=center;verticalAlign=middle;resizable=0;points=[];" parent="1" vertex="1" connectable="0">
                    <mxGeometry x="-608.0000041021254" y="-438.99547113587505" as="geometry">
                        <mxPoint x="27" y="-25" as="offset"/>
                    </mxGeometry>
                </mxCell>
                <mxCell id="68" value="" style="endArrow=diamondThin;endFill=1;endSize=24;html=1;entryX=0.008;entryY=0.102;entryDx=0;entryDy=0;entryPerimeter=0;exitX=1.006;exitY=0.111;exitDx=0;exitDy=0;exitPerimeter=0;" parent="1" source="7" target="53" edge="1">
                    <mxGeometry width="160" relative="1" as="geometry">
                        <mxPoint x="-550" y="-450" as="sourcePoint"/>
                        <mxPoint x="-370" y="-300" as="targetPoint"/>
                        <Array as="points"/>
                    </mxGeometry>
                </mxCell>
                <mxCell id="69" value="1" style="edgeLabel;html=1;align=center;verticalAlign=middle;resizable=0;points=[];" parent="68" vertex="1" connectable="0">
                    <mxGeometry x="-0.8815" y="1" relative="1" as="geometry">
                        <mxPoint y="-9" as="offset"/>
                    </mxGeometry>
                </mxCell>
                <mxCell id="70" value="0.*" style="edgeLabel;html=1;align=center;verticalAlign=middle;resizable=0;points=[];rotation=-7;" parent="1" vertex="1" connectable="0">
                    <mxGeometry x="-220.00000410212544" y="-518.995471135875" as="geometry">
                        <mxPoint x="-113.88750883247144" y="39.3094849534676" as="offset"/>
                    </mxGeometry>
                </mxCell>
                <mxCell id="72" value="" style="endArrow=diamondThin;endFill=0;endSize=24;html=1;exitX=-0.004;exitY=0.083;exitDx=0;exitDy=0;exitPerimeter=0;" parent="1" source="11" edge="1">
                    <mxGeometry width="160" relative="1" as="geometry">
                        <mxPoint x="-140" y="-540" as="sourcePoint"/>
                        <mxPoint x="-130" y="-457" as="targetPoint"/>
                    </mxGeometry>
                </mxCell>
                <mxCell id="73" value="1" style="edgeLabel;html=1;align=center;verticalAlign=middle;resizable=0;points=[];" parent="72" vertex="1" connectable="0">
                    <mxGeometry x="-0.759" relative="1" as="geometry">
                        <mxPoint x="2" y="-8" as="offset"/>
                    </mxGeometry>
                </mxCell>
                <mxCell id="74" value="0.*" style="edgeLabel;html=1;align=center;verticalAlign=middle;resizable=0;points=[];" parent="72" vertex="1" connectable="0">
                    <mxGeometry x="0.2698" y="-1" relative="1" as="geometry">
                        <mxPoint x="5" y="-7" as="offset"/>
                    </mxGeometry>
                </mxCell>
                <mxCell id="76" value="" style="endArrow=block;startArrow=block;endFill=1;startFill=1;html=1;exitX=1.002;exitY=0.089;exitDx=0;exitDy=0;exitPerimeter=0;entryX=-0.001;entryY=0.045;entryDx=0;entryDy=0;entryPerimeter=0;" parent="1" source="11" target="39" edge="1">
                    <mxGeometry width="160" relative="1" as="geometry">
                        <mxPoint x="120" y="-500" as="sourcePoint"/>
                        <mxPoint x="280" y="-500" as="targetPoint"/>
                    </mxGeometry>
                </mxCell>
                <mxCell id="77" value="0.*" style="edgeLabel;html=1;align=center;verticalAlign=middle;resizable=0;points=[];" parent="76" vertex="1" connectable="0">
                    <mxGeometry x="-0.7649" y="2" relative="1" as="geometry">
                        <mxPoint x="10" y="-6" as="offset"/>
                    </mxGeometry>
                </mxCell>
                <mxCell id="78" value="0.*" style="edgeLabel;html=1;align=center;verticalAlign=middle;resizable=0;points=[];" parent="1" vertex="1" connectable="0">
                    <mxGeometry x="172.3767007431054" y="-462.96300870755044" as="geometry"/>
                </mxCell>
                <mxCell id="80" value="" style="shape=stencil(pZ3Z0hzFEYWfRrcTtS/X2H4PRSCQAowIIby8vasM3fPPOTNfg32HfrJ6umvJ5eTJrHf5m18+vv/5w7sUfvn65fMPH/756duvH9/lv7xL6dNPHz98+fR1/de7/Nd3+ZvvPn/58P2Xz7/+9O1v//75/Zbc//X3z//YT/jXb+NKudW5R6Xw79//csv5v3/422/yP3766VE+VpWPIJ9vLYh8qigfh8rT+6RbayIfJ8oHff+YQD7ess5PIPlw6/FBPt8my4cs8gPmM099n3z84HP5cetV5H9fkFfysYl8gfnMXdc33/JA+ajzQ/snt1vT908d5ZPOJ+23XG8j/Tn58iefH8afef9y60XlaT7Lrdj80/qu7avri/O/tpc9H/bzks+6XrmgfLD9QN+bfD8U0A9LPuv7V/reeBzXN+eF5auuF57HeIt23mm9/qQ+WfKy/8uhYJ7Kp3lrqt8irNeSDypP+jmNWzF7Ae+f+jEdd/nC8lG/l9Y3NX+fRu9fb13tS6f5qXq+ym2QfDnUwV1+gn7Y2/1xv1W0XyndahV50icpHtNxly+g39Lan0nkaT7jvA19fof3ieOYjrv8pOcP9R/aLcB8xn6rWeTJf4jtNvX5NJ9L3p5P+m3Ji31cG5bk13Tr+9SG8qmKfCP5ouexob6K5/G+y0/Y/zEfx+OQ74fBfCWfVZ70T0z+/ELvv+xFE/lK+yHehsoPOI9LXuzjOBTqc/mg7z9umfZz0PkZxwZ5Kr+O4+PrTHRvp3ob85iup+Lr8DYR7/D0obZ0fQ0d3qGxyJInZ6AfrvUb+Q7PX0v/uJfX6kXYPGsrNpUvYIyavU9CY72Odld5mv6me2HJk3PSjq875TPO//Kdh8rT/Ff13ZY8zf/SVfL+5eL5Ial8p2BQff+lHSMFp7fSVJ6UYVFbtLQ7BVPF3n8pTwq+7P1ZWZ2u7Ck/MNjPqguX9Y4UvKjtWt4BKfOlmx/38/I+aL8l9U3WX9D5OUztKZ/RuCfVJxfgRjxckVO+ovMZ1VdaJ66T8VXfbRsLMi6KDWz1TMZXz9eKHhoZI4tlE56XoPOzoj16fjhcwVO+onEPFguyMxN0PnPH8xX0vOd5zNgLecWK1hNgP4fj9J3y8Yi2X8gneX46zPcrecHSVvDI8vL8chjwV+//uJ9LRWcv6Hks7fCe/tj8l47gWDhc31N+oH0J6juXiecxWOyydiw5n7fwaE9rvJBPIp/QfkWLBfMRnbzSP/L+FfVb0vNeGzq36bBup/w4VvCF/Hx8/xZQn2T1PlvE/Z/VP2kMZha1d62ic17UeW6sf6qe9zbQntZj957yE+1LU+y2rx0O53H5k4/z2Vf0D+vbdP/3E1144Q+L/9Pz8Yuv/O3H+ewM5nTdP53t77DYruH7DI19e8dgfCqW08eFvKxvn/g+0RT0CEeI8kejx4gnYAcsj5880hGwvhogazAy+mQrBBEAbnAQsAZMGcAQ4g5Cug4gsxGL5mAGg2RrgDgeo7IjV3XnjXZL9A0nCvVmALpm/YBtzwGdf+FUPW8G4DdMRY7GYCg32EePw+F/hT2K/RhntusVuKnrMPkXsmbDZkAPOZ0B5JsBNEtbZ8uAyDFKezIAEVdDyNcAOkBbjT1u75nQrC29JBjnTPhKOaphWwPIsctm+edlmkugknmRZ2kaW84zGn8+YGrwvQYQclYsepoVT1zJam5nxYVb3rTEi7PhidvucdYBtA7L3xUEYXaEF+vpILwZMAiSyZqPmgNnqRZNOK4BlV7pBPjfDKCPrl1hsTkP4OL5gKE44BqQ4ADVZcaHDiBFtvxeH0Anbjm+EursAbBbW1Kexx4A07pcZQkW5kTkvBUDeydGF8tZTjaAjmjrT74h0CsNUzMDs03LX9YzPY78zfMBZrL29gaD0pPmc9cBohh7ucwz6ADSS8sHDkUH0JleTnC0AQTD9W5numFcu9zgHHUAbY3ueYaKaubuB79VxnCAlh/c5KMLJs6GL1xGNbPd2qQDKNobReGIbXZpQDVlHA//5vkAS0auAZRwGN3WIeD2Xh5eepyl5ZFR/n7YEV1/qbC91/PU5+sYtE5DnfY0wDdsh01eqaLZXQOG+K2Mw6x1FSB+7S6ycds7kl+ISNNYAwR6XUeKoMW9+yWWHod6fj7g5B28CabpiK4BTaLdiqnwpSMcPiB4cQ2QM73xCXqlrmSNpc8JgFoDhP3VJoaWsyt9ZNkkUjPLfAg/cVk9yvHNYaBSQzVzd6fOAQVR4W0zHzff3Td4NUA4G9v7oIWbeuIaJ063/yXIXkCYYppBWT4abu8TaXuDZVIuaw8Q8LMdlvvVANmttSJVaA8QKkw5FM8fH0Dq/smAfEDSf3RAwoziNO1dTxD75QDD3AlznOZ7l/M3Xw54XIedNeCPFp9vxV2NTtxUrVEuLNBU5KTUq2lVFllBF24PEJpdYkU2Vd2v+Jdyzds1F6JdwBjItUbmcGCHeZIu7Gx2TZFtlOBC8wn5siL7bw2Q3ZoZRJhD47idIuVXks23GbGs7svjwmV2EudJMDoHhNukrTE0DbgGEL60QyTJ+09Ef+6QwTlgINA/jcWeOgZ+e0DQAYQJzKFw0Sbq0TpYsmJDheycSHbpghrqvsYFN3cHkvJKmZ0TI0QlxvnukeebAei3dsW9N6mBncQpAwLrpaaztCmp/Aty4uKFXmoaA0UGEWZVZz12ntaqCxf7lbMurMPY2MYZjTlywmLFDzqtnBJZAyQPFC9snFUexcLhQFagPHI6cRq3Op7VEq8GCPQYMwavK/DrxrCj7MBM6t3HxPYh6nlYAwgIWQOUlBd580WtqNhJQ9JLQTXfplHSOhgaGgNr76BaYxNBQQkMy7yuAYjNTA3AJzIhxjD0FJmLw+wP83A3MCMIApZ1jaYbj5kHo2oKqGOqYidMlQZNansUzYUw0/GeI77LE7NhyUuZSsP4cKQDPb/L0xYd8XCJzrAEy3KWvBjCisyeEVR3VfTyRtBsbkVFtAFWLSMhIkEfFt3ime9docnKzGxDJivCht0MWsXgohcNXyqiKj0p6l6xrK5HTSxXTgMEPY8Vz2ObWhZYEY1oQ9OfBc/XJiIlkSenqHU9LwWZ0K3pfBb0P1rT9S2o35ql3Qunw6wMhsueW1F9zmXGrTwpw6N8XtYyvIzQzpIXe5GxsqIlL1ul896illVzWWkzamRGz6lOc9vRni55KfNjwLwOtUcJE061a5SccL1qMyo96vMN7YnDgShWNXsaOS9vZcPxKssuACq7ZDVrmVNE/2TJC3U3IMa85AUtCqh/alLgMSCSU60MOPB+M2p/4PWNah8v5ZN9L81/UP158b3mQgfUJ9Wo4rxexc4v74dimCnvzzKU9Mcw8ZLX0A2ZuMXSLBH320Z4pbQF7e+SFyJBQoSrNAU/mXFVmurnhGW3pen6cuVAMUgiHwr4lbxigOivlqqIHtuvJW9tI8h/KFYKljFJXIrGqBdM8aLnkdsilGJYNbcdKZpSTlj27O+fEH3Z86P7GeenGj6KGYy9vvp8gl5KVYYIM8uXfNH3IVhky+t5wcq9qvFpwtRCqZouZK7Hfh/dDxSPlCdtR8h/KxYfZYyXi/nDTK8sVcG4S/lg70PrVSwZxPutaDzObUSenkc+70P1J8VT+33UnyT7Xor7w2i/qiKPCZH7/0FeS0tZ/1jbAq50KlZ6EhEiX/Jd/VUiIxZrMxS5jZTFsxHjlyUv+y1gsr8YSyOw/Rqa/AlYGVIsPgo8P1P9h8D+2FT7EjCPU60NDacEq5VmhoPF+Ep+qL+K8YiRtQMyRzfPWf3tC/lp70+06KT+EldKV0scXMy/4Z/hMMiv5Ks+n+L9XWio+58IO7X4/id9vuNZXV8qf6n1SXzH8bXoZyZCVmtDFrGN18YTLN6n5xtD9gJPmIr3Ml7RrM1cQgZ7s/PFTLoWdX8mzBe0pPPD9nTjXeqfI1U8exs1qvNp1oaJKxU3Hqjy5M9svNHwPcYzDU8jlnhrVlrN+HDT+I6rYzb13to4Mv4s61W4U8nQeKdg5fDGwxW/JX+mWxu1guu18Xxr+wX2ZecL9PlYaGD5iILk2W4FhAWTtL0ZqQ3xn52v0f1AnB/PBzGHtE9vu4b5PsvoVtRvw0vz0T4Oq3OtSKDY+b4m8uRfjeT5LGKl7KJZzR9hvYO1zbrIVxbFAxuer+Gl6shNHVaExW25hlU9Mol/mP4ZXLgwlN84rvLv1maL9POuapBqEN5vU/XDxPmf1saLO1PsqlRrhYUEUCty2JQJWIE1QBCOGHCKpnVG27QPYmYl401FTPpN6224+2fRN5iWjokL9LNxXdIV50jiqphRUcyi1Vq7Ix7xdYpa+simeFpB5e6KRfQbwwYjJ6engb+7K+EFf00GNKbUOUOuoX85rQ1w7FxR0Gx7Dz5A3rxtMK+2a0gWuWRzkyeFABqYytW1smNHNTyg2wDcfN1grYTtcTdN1iimWEvlzN2CSMD0TC93e9h0ZSPiImlvqK7fZCI608bR3k0teYB4C4lrPOdQc35h3zYxXRZuMp9zWG8tRjTm0OrFzCH4Jtc/vlKOVx+tMVdi+2CND/IFPXMYilyutrfQ5PKF5pvWfvtCkU0D2vtVWZE2dePq9l1sIq5/4CNqvk9hcONemn4OSFxGMVWR7XKWizokK5i5KO8SfKBc0Penqvt7SvjlAPmGgSmYNUBD8nlVYaOtkQPzmy1pv4uvqB9ZCNbB7LK+S38iI/A4rddIZabUHlB1AFEvp7nem4zD8yqO667ku9hM8g3Mrn1SNjeR3rMPhFSFBvYdrN6xMeHI1UZLiLh6fVfLrJhMGzeO0d3INe6dvS27fHS/0veyvdtA2PXeeuEMW8OVhyWvtDtG0G5tCrz2i8K8ptq4F6SezqpQW6+80tVabneukrZakDtc9GqAVtxz+mdaumJExGtnUvU9mFAxrffhYARzl0U8ujO7J9hFlYM0MmiIoQ0zQWMwKGZ3Ney/MAqizcMnqsphBWEz4EcPK9G/4wqvgCgtpEjcgcIyRzvq5z4d2gMpow83kjXg4q0xrO/vvbzqFZqpjW64mKpPpbfMhvmObq0QJ3dv2D1fpMtSx2C0W/eGyc2pu1EUdgUkDbAeF3NgtfruvVN1AFnRHq1fyuB1CDZLk/Ny3iF/MtHaiIjbNwCDsrss2Ssh9d6oN9shotyZ5druruzzAc96UWH2z7pdvfFMn48IGkHcveWnA3bLLlsIyoDspmDBpokp5mIg7r0Nng9o1shpov+zHOHmu4+yyFlR8r2/KS0frU/ZwLqqYq7xxaEu3t2QK8mKXYAyOVVRjJq+wUJ6pai49OQuAHloELSbUdElT02zD5PLY7IbOS71zoZ8z4t7p6IVPDKjLln4emF303hiqCmi3iWIVQfQwu3WmuZs4OVK9ckAvB3KyoIm80KSXac2GSVLrisDr0NUpujOPcFKe9f3wWrmXv7+xg/FO2+G+aEDZylaX6bdm5Z+weiHu/stdVKuahV3RpJ7BLu3Tn5ozAqVX/UItpuNrroQe0xTrjopSzC6BuAsRUVcB9NwY1Ra/2AeerQrHJazTB18d522fANXtphd75PL260l2OBMvJ7PzhdAGTHmom1a19ihV3x+VzS3czqkKZzWL5hJSozsib1D64keEa6zTF8P6ExWJbpsahD5PFYYPriySBMnd+rUC3kh9rSKHlJW4s3dnX4hL/mxdtHMWQtL24X9UBxwObp8J4xEz8vPJegmKvGvcuV5VGNTmalmd87UhDY/2J0YEc2loTaV9Y/fCcOQStB0ZhlYmRZ0PxTODwW7v7PheQwahOzSMLwjRcgDu7QB318g2JLxfAUt7CpcORysDVlE5l9QT6IwLybo/sx8R5YhBLlfzL/QPXLDyudghUgVK/f8DqWMME1Qp2OFFnTegxXyBMTko+rPi0R1tF5iHGDanTn7FhSU1x5Z3AzWWE/bIpD7recxJUSBkxXKscOU1D4mpm0ZRhYn0lqSrm9k5pzd7x5ZX2VtnLJvukB5hYoa311ghfMVcZ9iLJ6KPKFihQAFiUhF7fVFDyorfIt8x5p3Astc+WC9mPgOyfrkTku+o1IbjTGHr1mhBOvzZk3AuLKrW2F4wP1v/nYMyOzsVkjCd15ZinJehCPGS8VGWAY8cWZPq8gH5yb1bA3kWETrvj/4KiEjvXa+mzh6kyq8rjEqQtWRyxCTIinMG9gnSUnZGL9n63rMpitb42ame1gRzMXd1kXnv2FCP1pReEMQP9p9sdxka2l6va+OsQQrQq18T1TzIgBSDdFI60wOi3afcWW0xXrnc1FCtAQy35Fwr7m7y6MrY0WTBV357ZskkUdXIxvxDPf/rlHSohPa/xsb0CIYysUly01zU6h9/PR78brb7k2ecD6Nzpv5ukZvDYxZh2SUn4yhSLIO5xlDqWxN7DKS+HLw56NrGL0InqCBJS+8xYtbrdz3R/AzG9bCRf85GYkX5z8nbypAUEs2BDohqSZbMiOhs5GL+nqX8tbkg+x1tiZYF99b1V5wU5Mlr7EjFh1mK+JMfD13U33FTVn2bce6n4lAnbs3UcP9aUWB3DQoD43tOAOYLQPITeOyEY9PMPR5aBSMbI36pBgWeNGUJfr7IJScVP9cNHGxJmfcnrtYOp/p7iWrPsncRKoo1njR5KmoP3DRJKa4PsemUHZhUkb/oRRr589NgCy7y6VZxfzhjP5qMZ4ks9yfyvP8W5E0+ef+vQXjnWKVZYXPl/FT2L/a8uaP8f60ouT/T379x8/vv3787R/fffrxx1++fvn8w4e3//+7z18+fP/l868/fXv+6ZeP73/+sP71Hw==);lineShape=1;" vertex="1" parent="1">
                    <mxGeometry x="-607.9880639904043" y="-541.0934742211755" width="543.086966884624" height="285.787786565779" as="geometry"/>
                </mxCell>
            </root>
        </mxGraphModel>
    </diagram>
</mxfile>